<svg version="1" xmlns="http://www.w3.org/2000/svg" width="666.667" height="666.667" viewBox="0 0 500.000000 500.000000"><path d="M235.1 145c-16.2 3.4-32.9 12.6-43.2 23.7-6.2 6.7-9.7 11.7-14.4 21-15.6 31-12.9 72.7 6.6 101.4 12.5 18.5 32.9 30.9 54.6 33.4 9.1 1 9.1 1 10.4 7.3 3.6 17.8 16.3 30.6 33.7 34.3 11 2.3 42-.5 46.8-4.2.6-.5 1-2.6.9-4.6-.1-3.7-.2-3.8-3.6-3.6-22.1 1-25.3.8-30.2-1.5-9.7-4.8-18.3-16.6-19.4-26.6l-.5-4.2 9.3-4.6c27.3-13.6 43.6-38.6 46.9-71.8 4-40.1-14-76.8-45.7-92.9-10.6-5.3-19.1-7.3-33.8-7.7-7.7-.2-16 .1-18.4.6zm26.7 10.5c22.4 5.3 36.5 25.1 41.2 58 1.5 10.9 1.2 35.9-.6 46.6-4 23.8-15.5 42.4-30.9 50.2-5.1 2.6-14.9 4.7-21.6 4.7-25.3-.1-43.6-18.5-50.6-51-1.4-6.7-1.8-12.9-1.8-29 0-25.8 2-36.4 9.7-52.8 3.5-7.5 12.9-17.9 19.6-21.8 10.1-6 22.9-7.7 35-4.9z"/></svg>